<svg width="24" height="24" viewBox="0 0 24 24" fill="none" xmlns="http://www.w3.org/2000/svg">
<path d="M19.7584 22.4382C20.6464 22.4382 21.3663 21.7183 21.3663 20.8304C21.3663 19.9424 20.6464 19.2225 19.7584 19.2225C18.8705 19.2225 18.1506 19.9424 18.1506 20.8304C18.1506 21.7183 18.8705 22.4382 19.7584 22.4382Z" fill="black" stroke="#ECA400" stroke-width="1.5" stroke-linecap="round" stroke-linejoin="round"/>
<path d="M9.03932 22.4382C9.92729 22.4382 10.6472 21.7183 10.6472 20.8304C10.6472 19.9424 9.92729 19.2225 9.03932 19.2225C8.15132 19.2225 7.43146 19.9424 7.43146 20.8304C7.43146 21.7183 8.15132 22.4382 9.03932 22.4382Z" fill="black" stroke="#ECA400" stroke-width="1.5" stroke-linecap="round" stroke-linejoin="round"/>
<path d="M4.21573 3.14382H22.4382L20.2944 14.9348H6.35955L4.21573 3.14382ZM4.21573 3.14382C4.03708 2.42921 3.14382 1 1 1" stroke="#ECA400" stroke-width="1.5" stroke-linecap="round" stroke-linejoin="round"/>
<path d="M20.2944 14.9348H6.35956H4.46311C2.55049 14.9348 1.53596 15.7722 1.53596 17.0787C1.53596 18.3851 2.55049 19.2225 4.46311 19.2225H19.7584" stroke="#ECA400" stroke-width="1.5" stroke-linecap="round" stroke-linejoin="round"/>
</svg>
